# Blender 3.4.1
# www.blender.org
o Cube
v 0.500000 0.500000 -0.500000
v 0.500000 -0.500000 -0.500000
v 0.500000 0.500000 0.500000
v 0.500000 -0.500000 0.500000
v -0.500000 0.500000 -0.500000
v -0.500000 -0.500000 -0.500000
v -0.500000 0.500000 0.500000
v -0.500000 -0.500000 0.500000
vn -0.0000 1.0000 -0.0000
vn -0.0000 -0.0000 1.0000
vn -1.0000 -0.0000 -0.0000
vn -0.0000 -1.0000 -0.0000
vn 1.0000 -0.0000 -0.0000
vn -0.0000 -0.0000 -1.0000
vt 0.248333 0.194874
vt 0.497939 0.662543
vt 0.499052 0.195459
vt 0.750163 0.661979
vt 0.946111 0.193446
vt 0.748532 0.195826
vt 0.250556 0.668234
vt 0.499341 0.661799
vt 0.502062 0.196921
vt 0.748998 0.662971
vt 0.956111 0.665433
vt 0.749839 0.198444
vt 0.498333 0.194874
vt 0.498289 0.196783
vt 0.498014 0.662129
vt 0.748333 0.191332
vt 0.749045 0.662288
vt 0.747825 0.196190
vt 0.497222 0.668234
vt 0.497968 0.196046
vt 0.498282 0.661619
vt 0.749552 0.663845
vt 0.749280 0.195513
vt 0.752778 0.663319
s 0
f 5/13/1 3/7/1 1/1/1
f 3/8/2 8/23/2 4/10/2
f 7/21/3 6/18/3 8/22/3
f 2/5/4 8/24/4 6/16/4
f 1/2/5 4/12/5 2/4/5
f 5/15/6 2/6/6 6/17/6
f 5/13/1 7/19/1 3/7/1
f 3/8/2 7/20/2 8/23/2
f 7/21/3 5/14/3 6/18/3
f 2/5/4 4/11/4 8/24/4
f 1/2/5 3/9/5 4/12/5
f 5/15/6 1/3/6 2/6/6
